PathFileType	4	(X/Y/Z)	 s11c0203.trc
DataRate	CameraRate	NumFrames	NumMarkers	Units	OrigDataRate	OrigDataStartFrame	OrigNumFrames
200	200	4	48	mm	200	1001	2000
Frame#	Time	racr			lacr			c7			jug			rlel			rdr			llel			ldr			s2			lic			ric			lasi			rasi			rpsi			lpsi			rgt			lgt			rth1			rth2			rth3			rth4			rlfc			rmfc			rsh1			rsh2			rsh3			rsh4			rlmal			rcal			rtoe			rmt5			lth1			lth2			lth4			lth3			llfc			lmfc			llmal			lcal			lmt5			lsh1			lsh2			lsh3			lsh4			ltoe			SBIKE			LBIKE			RBIKE			
		X1	Y1	Z1	X2	Y2	Z2	X3	Y3	Z3	X4	Y4	Z4	X5	Y5	Z5	X6	Y6	Z6	X7	Y7	Z7	X8	Y8	Z8	X9	Y9	Z9	X10	Y10	Z10	X11	Y11	Z11	X12	Y12	Z12	X13	Y13	Z13	X14	Y14	Z14	X15	Y15	Z15	X16	Y16	Z16	X17	Y17	Z17	X18	Y18	Z18	X19	Y19	Z19	X20	Y20	Z20	X21	Y21	Z21	X22	Y22	Z22	X23	Y23	Z23	X24	Y24	Z24	X25	Y25	Z25	X26	Y26	Z26	X27	Y27	Z27	X28	Y28	Z28	X29	Y29	Z29	X30	Y30	Z30	X31	Y31	Z31	X32	Y32	Z32	X33	Y33	Z33	X34	Y34	Z34	X35	Y35	Z35	X36	Y36	Z36	X37	Y37	Z37	X38	Y38	Z38	X39	Y39	Z39	X40	Y40	Z40	X41	Y41	Z41	X42	Y42	Z42	X43	Y43	Z43	X44	Y44	Z44	X45	Y45	Z45	X46	Y46	Z46	X47	Y47	Z47	X48	Y48	Z48	
1001	5.0050	531.555360	1320.334910	-123.643041	479.157437	1352.533329	-433.501058	451.926630	1455.766362	-263.681190	460.431707	1275.348631	-284.372007	564.516999	1121.158958	75.166791	757.547551	964.596778	-41.570841	515.925714	1090.484433	-567.572431	776.360170	956.725423	-420.300980	-96.744208	1193.672711	-212.791586	79.937049	1250.741884	-433.061779	135.458663	1194.648430	-25.989295	127.640915	1176.296296	-400.666871	166.008421	1137.196021	-59.844782	-56.108095	1272.294319	-145.956706	-65.188089	1274.916415	-236.260032	55.636022	1035.234141	-18.922758	30.636290	1131.477234	-443.089265	146.727880	924.116875	-11.393881	222.175739	876.292846	-15.236695	263.661601	801.240971	-32.151381	248.917461	902.313741	-19.302969	332.732984	720.997941	-46.974355	346.680915	713.000285	-174.027428	239.252832	595.237995	-44.757208	203.842655	518.241427	-70.214863	134.721019	465.921061	-77.356853	227.483734	506.432984	-99.577333	42.411278	366.003465	-97.266876	-18.234476	378.445584	-149.861671	218.864675	216.375595	-136.570571	141.930023	224.712829	-70.509821	172.145715	1068.360326	-461.213190	256.667332	1054.464147	-458.126171	272.551961	1085.571886	-445.384149	326.184776	997.877826	-464.048914	453.515820	922.690061	-441.386509	470.966045	910.093579	-311.147393	286.605327	513.108790	-425.501460	223.552668	472.991847	-388.266875	426.461959	409.587293	-441.869035	405.769675	806.131537	-461.828545	398.240586	721.177256	-449.245880	349.236668	647.972552	-443.587357	429.585461	713.289702	-428.064574	517.954768	433.849344	-368.193390	-205.042135	950.633578	-259.650254	1.115826	82.676677	-460.771353	-15.413071	81.012415	-62.248048	
1002	5.0100	531.759947	1317.204986	-122.652114	479.434485	1352.011613	-433.544265	452.299686	1455.094447	-262.791036	460.105357	1274.434623	-284.116429	563.639500	1118.830120	75.319032	756.924716	964.456464	-40.360881	516.212974	1091.679664	-567.973293	774.980461	956.789726	-421.418759	-96.364854	1192.659137	-211.432120	79.958549	1248.924846	-432.389805	135.310230	1194.086298	-24.611812	127.731335	1173.454989	-400.766748	165.849725	1136.086302	-58.957602	-55.453104	1271.603230	-145.144116	-64.698496	1273.793241	-234.898587	57.250434	1034.612638	-18.690661	30.098049	1129.505984	-442.012220	150.438588	925.465094	-11.377200	227.163096	879.340523	-15.701879	269.921286	805.108559	-32.310812	253.451250	906.151984	-19.456121	339.975904	725.640261	-47.127447	352.652022	717.362021	-174.320197	243.774815	601.709173	-44.593858	206.623314	525.606397	-69.869220	136.373979	474.785487	-76.930432	229.904560	513.244606	-99.233601	41.907164	377.279341	-96.480659	-18.497301	391.790404	-148.771497	214.092246	222.595675	-137.577062	137.854027	233.041459	-71.031996	170.594902	1062.092327	-460.624309	254.784119	1046.030005	-458.311792	271.613700	1076.918022	-446.232936	322.767852	987.666528	-464.098612	448.025009	908.972028	-441.799099	466.381427	896.352836	-312.735576	286.211886	497.001041	-425.184452	224.164002	454.998289	-388.056398	429.681970	399.976243	-442.041101	401.639739	791.058236	-463.006740	395.107152	706.197170	-449.308154	347.070604	632.345823	-443.581308	426.652741	698.628613	-427.947269	520.303204	427.864858	-368.267958	-205.052585	950.560761	-259.715059	1.106817	82.593368	-460.792878	-15.429829	80.979740	-62.252052	
1003	5.0150	531.687802	1315.135725	-120.989340	479.640465	1352.066605	-433.644401	452.530124	1454.342994	-261.762648	460.137138	1273.803815	-283.746251	562.306932	1116.599777	75.307029	756.306806	964.336781	-39.282780	516.307697	1092.964866	-568.158957	773.439715	957.165762	-422.627309	-95.990320	1191.475935	-210.359540	80.132494	1246.669145	-431.512743	135.189931	1193.131404	-24.123415	128.141338	1170.731092	-401.178231	165.773158	1135.041215	-58.333479	-55.162236	1270.389229	-144.512184	-64.267443	1272.512160	-233.787576	59.028393	1034.037975	-18.474713	29.981494	1127.207640	-441.026855	154.186929	927.229499	-11.526646	232.322765	882.705830	-16.370690	276.538886	809.370978	-32.370822	258.033471	909.916205	-20.215506	347.470437	730.728631	-47.161921	358.681627	721.968065	-174.532789	248.533084	608.709877	-44.430902	209.887886	533.289785	-69.469237	138.706228	483.814704	-76.444350	232.997772	520.422072	-98.823216	42.125520	388.670784	-95.638866	-17.791390	405.030596	-147.476539	209.826883	229.397955	-138.812073	134.506676	241.536329	-71.653616	169.213648	1055.634948	-460.213061	252.961710	1037.413340	-458.529096	270.765359	1068.116378	-447.145219	319.272597	977.139562	-464.088425	442.342068	894.893023	-442.008764	461.316716	882.244566	-314.052915	285.839192	481.030640	-424.256921	225.118345	437.173567	-387.006331	432.363500	389.911053	-442.103931	397.304317	775.497020	-462.980005	391.820191	690.942750	-448.899636	344.753489	616.420297	-443.421432	423.416253	683.899106	-427.714052	522.215226	421.042105	-368.614010	-205.049702	950.520654	-259.722873	1.070724	82.613618	-460.758088	-15.425002	80.955903	-62.256044	
1004	5.0200	531.467851	1314.094651	-119.025200	479.854354	1352.581586	-433.604671	452.727454	1453.959231	-260.450356	460.480435	1273.335759	-283.048595	560.714744	1114.471995	75.090685	755.612666	964.264289	-38.376489	516.379968	1094.491770	-568.626351	771.902459	957.482686	-423.658617	-95.556140	1190.122370	-209.526448	80.669353	1244.442463	-430.929584	134.986015	1192.204064	-23.713983	128.500218	1167.693870	-401.418660	165.715198	1134.243264	-58.045041	-55.118244	1269.256713	-143.592379	-63.808937	1271.006805	-232.966935	60.916154	1033.605414	-18.320188	30.276957	1124.613351	-440.264876	158.694148	929.818149	-12.406669	237.675371	886.663079	-16.800365	283.572328	814.154669	-32.404134	262.736454	914.362989	-21.121796	355.112044	736.306788	-47.115817	364.913471	726.915989	-174.731177	253.808631	615.978216	-44.279236	213.644505	541.370588	-69.115276	141.533071	493.249761	-75.948592	236.549438	527.860083	-98.398735	43.056814	400.228583	-94.896931	-16.244754	418.548547	-146.340515	206.120636	236.104385	-139.913415	131.665937	250.395192	-72.178375	167.966129	1049.097562	-459.895967	251.201929	1028.649979	-458.792820	269.999234	1058.984707	-448.136782	315.817757	966.472541	-463.933371	436.449975	880.185969	-441.546900	455.818164	867.952167	-315.098018	285.540433	465.354647	-422.874418	226.435185	420.074682	-385.440657	434.598294	379.583665	-442.095618	392.709834	759.855728	-462.803107	388.355595	675.324523	-448.039794	342.441311	600.290683	-442.733870	419.704383	668.748979	-426.815217	523.725794	413.152108	-368.775492	-205.047992	950.474559	-259.653269	1.047604	82.555851	-460.763230	-15.438120	80.931924	-62.252790	
